<?xml version="1.0" encoding="UTF-8" standalone="no"?>
<svg
   xmlns:dc="http://purl.org/dc/elements/1.1/"
   xmlns:cc="http://creativecommons.org/ns#"
   xmlns:rdf="http://www.w3.org/1999/02/22-rdf-syntax-ns#"
   xmlns:svg="http://www.w3.org/2000/svg"
   xmlns="http://www.w3.org/2000/svg"
   viewBox="0 0 50 49.997704"
   height="49.997704"
   width="50"
   version="1.1"
   id="svg3336">
  <metadata
     id="metadata3342">
    <rdf:RDF>
      <cc:Work
         rdf:about="">
        <dc:format>image/svg+xml</dc:format>
        <dc:type
           rdf:resource="http://purl.org/dc/dcmitype/StillImage" />
        <dc:title></dc:title>
      </cc:Work>
    </rdf:RDF>
  </metadata>
  <defs
     id="defs3340" />
  <g
     transform="matrix(0.79996326,0,0,0.79996326,0.00229623,0)"
     id="g3346">
    <path
       id="path3362"
       d="M 0,31.25 0,0 31.25,0 62.5,0 l 0,31.25 0,31.25 -31.25,0 L 0,62.5 0,31.25 Z"
       style="fill:#fbb751" />
    <path
       id="path3360"
       d="M 0.18355403,35.809002 C -0.15128183,8.1867844 0.45292218,1.2029222 2.960531,3.710531 3.9626189,4.7126189 3.9712116,5.352843 2.9911188,5.989551 0.41544411,7.6628134 1.5012014,11.25 4.5833334,11.25 6.2895014,11.25 7.5,10.50244 7.5,9.4487713 7.5,8.4580954 8.1445368,7.2491969 8.9323038,6.76233 9.9403118,6.1393469 10.118403,6.8580762 9.5334888,9.1885589 8.7206031,12.427353 8.8345213,12.5 14.726185,12.5 c 3.313099,0 6.55819,0.536091 7.211315,1.191312 0.750325,0.752734 1.031715,-1.28616 0.764342,-5.5382489 C 22.294717,1.6784751 22.145287,1.4272931 18.757929,1.5236034 15.54791,1.6148716 15.266503,1.9933455 15.569482,5.8118532 15.752254,8.115334 15.744895,10 15.55313,10 c -0.191764,0 -1.238416,0.341431 -2.325896,0.758736 -1.594086,0.611709 -1.973525,-0.175521 -1.958093,-4.0625 C 11.283327,3.1230894 11.601963,2.3603875 12.5,3.75 13.542864,5.3637163 13.714385,5.3288616 13.730859,3.4998799 13.74621,1.7955455 12.326834,1.2854542 6.5625,0.92373541 2.0354359,0.63965671 4.1175161,0.38522473 12.1875,0.23635559 24.504934,0.00913261 25,0.10297201 25,2.6649575 c 0,1.4657266 1.143351,4.5149381 2.54078,6.7760255 1.524699,2.467015 2.046417,4.416601 1.304592,4.875073 -0.679903,0.420204 -0.919322,1.589743 -0.532043,2.598975 C 28.700607,17.924264 28.33461,18.75 27.5,18.75 c -0.83461,0 -1.211559,0.797199 -0.837664,1.771551 0.373894,0.974354 -0.07757,2.062185 -1.003254,2.417404 -2.082968,0.79931 -0.802746,7.522004 2.34823,12.331001 1.332325,2.033385 1.655965,3.540608 0.865202,4.029327 -0.694832,0.429428 -0.946464,1.606516 -0.559185,2.615748 C 28.700607,42.924264 28.33461,43.75 27.5,43.75 c -0.83461,0 -1.211559,0.797199 -0.837664,1.771551 0.373894,0.974354 -0.07757,2.062185 -1.003254,2.417404 -1.270155,0.487404 -1.422946,1.799175 -0.622792,5.346949 0.583147,2.585603 0.844322,5.050506 0.580389,5.477561 -0.263935,0.427054 1.940583,0.901756 4.898931,1.054891 l 5.378811,0.27843 0.733893,-6.610894 C 37.031955,49.849901 37.161786,41.8125 36.916826,35.625 c -0.301627,-7.618922 -0.134916,-9.636188 0.516515,-6.25 0.910979,4.735331 0.966635,4.602996 1.05142,-2.5 0.06097,-5.108136 -0.243495,-6.702712 -0.954706,-5 -0.663089,1.587505 -1.06653,-1.948414 -1.105325,-9.6875 L 36.363636,0 49.744319,0.21838402 C 57.103694,0.33849528 60.707156,0.65341774 57.752015,0.91821179 53.097208,1.3353035 52.481914,1.723815 53.14875,3.8248277 53.582387,5.1910985 53.335904,6.25 52.584235,6.25 51.850405,6.25 51.184749,4.984375 51.104999,3.4375 50.991026,1.2268681 50.835131,1.1062722 50.376506,2.8739611 c -0.320918,1.2369286 0.227527,3.4869286 1.218766,5 1.683685,2.5700479 1.600402,2.7633879 -1.265901,2.9387389 -2.832332,0.173273 -3.032778,-0.18327 -2.60788,-4.638755 C 48.170749,1.4630285 48.086697,1.3510645 44.210359,1.496791 40.499745,1.6362874 40.260714,1.9203841 40.570371,5.8230458 40.752653,8.1203706 40.417639,10 39.825896,10 39.234154,10 38.75,10.5625 38.75,11.25 c 0,1.348625 13.507529,1.744253 16.772766,0.491264 C 56.610245,11.323959 57.5,10.232156 57.5,9.3150352 c 0,-0.9171209 0.651107,-2.0698989 1.446905,-2.5617288 1.004118,-0.6205788 1.216784,-0.014257 0.694936,1.9812917 -0.427317,1.6340649 -0.28402,2.3930379 0.331912,1.7579649 C 60.569886,9.8779034 61.297884,7.6875 61.591526,5.625 61.885167,3.5625 62.2097,15.515625 62.31271,32.1875 L 62.5,62.5 31.503551,62.5 0.50710164,62.5 0.18355403,35.809002 Z M 8.0520541,58.4375 C 8.8692169,55.713245 8.927361,55.70344 9.9052021,58.125 10.675819,60.033384 11.030473,59.219911 11.403866,54.6875 11.75295,50.45017 11.436203,48.75 10.297692,48.75 9.2201951,48.75 8.9569538,49.764342 9.486695,51.875 9.9699656,53.800504 9.7392074,55 8.88551,55 8.1234795,55 7.5,53.59375 7.5,51.875 7.5,49.877979 6.7965847,48.75 5.5512287,48.75 4.4794046,48.75 3.92608,49.273632 4.3216186,49.913628 4.7171572,50.553623 4.4599289,51.43624 3.75,51.875 c -0.7099289,0.43876 -0.9282895,1.384267 -0.4852458,2.101128 0.4430438,0.716859 0.066514,1.76012 -0.8367325,2.318357 -1.353149,0.836293 -1.3543968,1.361839 -0.00709,2.985246 2.3159428,2.79054 4.6459744,2.442045 5.6311199,-0.842231 z M 22.5,54.375 c 0,-4.761774 -0.377635,-5.625 -2.460769,-5.625 -1.682004,0 -2.231344,0.597872 -1.735825,1.889176 0.502262,1.308869 0.14995,1.668529 -1.146938,1.170867 -1.467004,-0.562943 -1.797117,0.177507 -1.526211,3.423323 0.190122,2.277899 0.40734,4.282259 0.482709,4.454134 C 16.188335,59.859375 17.65625,60 19.375,60 22.24537,60 22.5,59.541666 22.5,54.375 Z m 4.224586,-19.18767 c -1.125221,-1.597604 -2.513139,1.618875 -1.928957,4.470336 l 0.710355,3.467334 0.763431,-3.75 c 0.419886,-2.0625 0.624714,-3.946951 0.455171,-4.18767 z M 38.327851,14.6875 c -0.346766,-0.859375 -0.630482,-0.15625 -0.630482,1.5625 0,1.71875 0.283716,2.421875 0.630482,1.5625 0.346765,-0.859375 0.346765,-2.265625 0,-3.125 z M 26.724586,10.187331 c -1.125221,-1.5976047 -2.513139,1.618874 -1.928957,4.470335 l 0.710355,3.467334 0.763431,-3.75 c 0.419886,-2.0625 0.624714,-3.946951 0.455171,-4.187669 z M 38.353892,2.265625 C 37.95486,1.2684591 37.658664,1.5646546 37.598684,3.0208334 c -0.05427,1.3177082 0.24116,2.0559895 0.656525,1.640625 0.415363,-0.4153647 0.459772,-1.4934896 0.09868,-2.3958334 z M 33.125,57.5 c 0.424899,-0.6875 1.020595,-1.25 1.323771,-1.25 C 34.751947,56.25 35,56.8125 35,57.5 c 0,0.6875 -0.595698,1.25 -1.323771,1.25 -0.728074,0 -0.976128,-0.5625 -0.551229,-1.25 z m -6.875,-5 c 0,-2.0625 0.529302,-3.75 1.176229,-3.75 1.774451,0 2.784181,2.222418 1.398753,3.078659 -0.668688,0.413272 -0.898932,1.57714 -0.511653,2.586372 C 28.700607,55.424264 28.394791,56.25 27.633736,56.25 26.872681,56.25 26.25,54.5625 26.25,52.5 Z m 6.25,-2.426229 c 0,-2.709426 0.46875,-5.215932 1.041666,-5.570014 0.572918,-0.354082 1.041668,1.86272 1.041668,4.926229 C 34.583334,52.493494 34.114584,55 33.541666,55 32.96875,55 32.5,52.783197 32.5,50.073771 Z m 0,-12.5 c 0,-2.709426 0.46875,-5.215932 1.041666,-5.570014 0.572918,-0.354082 1.041668,1.862721 1.041668,4.926229 0,3.063508 -0.46875,5.570014 -1.041668,5.570014 C 32.96875,42.5 32.5,40.283197 32.5,37.573771 Z M 26.25,27.5 c 0,-2.0625 0.529302,-3.75 1.176229,-3.75 1.774451,0 2.784181,2.222417 1.398753,3.078659 -0.668688,0.413272 -0.898932,1.57714 -0.511653,2.586372 C 28.700607,30.424264 28.394791,31.25 27.633736,31.25 26.872681,31.25 26.25,29.5625 26.25,27.5 Z m 6.25,-2.426229 c 0,-2.709426 0.46875,-5.215932 1.041666,-5.570014 0.572918,-0.354082 1.041668,1.86272 1.041668,4.926229 C 34.583334,27.493494 34.114584,30 33.541666,30 32.96875,30 32.5,27.783197 32.5,25.073771 Z m 0,-12.5 c 0,-2.7094256 0.46875,-5.215932 1.041666,-5.5700139 0.572918,-0.354082 1.041668,1.8627209 1.041668,4.9262289 0,3.063508 -0.46875,5.570014 -1.041668,5.570014 C 32.96875,17.5 32.5,15.283198 32.5,12.573771 Z M 26.25,3.125 C 26.25,1.0171569 26.941666,0 28.375,0 c 1.570544,0 1.759106,0.36589374 0.722681,1.4023187 -0.771275,0.7712754 -1.104844,2.1775254 -0.741264,3.125 C 28.719998,5.4747935 28.394791,6.25 27.633736,6.25 26.872681,6.25 26.25,4.84375 26.25,3.125 Z M 7.5,3.75 C 7.5,3.0625 8.0625,2.5 8.75,2.5 9.4375,2.5 10,3.0625 10,3.75 10,4.4375 9.4375,5 8.75,5 8.0625,5 7.5,4.4375 7.5,3.75 Z m 25,-1.3237712 C 32.5,1.0106546 33.0625,0.20010164 33.75,0.625 34.4375,1.0498984 35,2.2080954 35,3.1987713 35,4.189447 34.4375,5 33.75,5 33.0625,5 32.5,3.841803 32.5,2.4262288 Z M 57.5,3.75 C 57.5,3.0625 58.0625,2.5 58.75,2.5 59.4375,2.5 60,3.0625 60,3.75 60,4.4375 59.4375,5 58.75,5 58.0625,5 57.5,4.4375 57.5,3.75 Z"
       style="fill:#fbb54c" />
    <path
       id="path3358"
       d="m 1.5862899,61.633761 c 1.2162094,-0.316928 2.9037093,-0.296086 3.75,0.04631 C 6.1825805,62.022483 5.1875,62.281789 3.125,62.256314 1.0625,62.23084 0.37008044,61.950691 1.5862899,61.633761 Z M 23.253811,60.895394 37.132623,59.687302 37.941311,44.647399 C 38.38609,36.375453 38.75,26.080035 38.75,21.768694 l 0,-7.838803 7.1875,-0.778705 c 3.953125,-0.428286 9.296875,-1.080704 11.875,-1.449817 L 62.5,11.030255 62.5,36.765127 62.5,62.5 35.9375,62.301743 C 9.4724794,62.104212 9.4259326,62.099051 23.253811,60.895394 Z M 0,30.362966 0,11.663432 10.3125,12.247531 c 5.671875,0.321255 10.725761,1.212608 11.230859,1.980784 0.505097,0.768178 0.926972,8.56856 0.9375,17.334185 L 22.5,47.5 l -7.34375,0 c -4.039062,0 -9.1015625,0.351562 -11.25,0.78125 L 0,49.0625 0,30.362966 Z M 3.4375,0.34575555 c 2.234375,-0.27728346 5.890625,-0.27728346 8.125,0 2.234375,0.27728347 0.40625,0.50415176 -4.0625,0.50415176 -4.46875,0 -6.296875,-0.22686828 -4.0625,-0.50415176 z m 47.5,0 c 2.234375,-0.27728346 5.890625,-0.27728346 8.125,0 2.234375,0.27728347 0.40625,0.50415176 -4.0625,0.50415176 -4.46875,0 -6.296875,-0.22686828 -4.0625,-0.50415176 z"
       style="fill:rgba(39, 76, 228, 0.9)" />
    <path
       id="path3356"
       d="m 1.5862899,61.633761 c 1.2162094,-0.316928 2.9037093,-0.296086 3.75,0.04631 C 6.1825805,62.022483 5.1875,62.281789 3.125,62.256314 1.0625,62.23084 0.37008044,61.950691 1.5862899,61.633761 Z M 23.253811,60.895394 37.132623,59.687302 37.941311,44.647399 C 38.38609,36.375453 38.75,26.080035 38.75,21.768694 l 0,-7.838803 7.1875,-0.778705 C 49.890625,12.7229 55.234375,12.070482 57.8125,11.701369 60.448404,11.323984 62.5,11.55705 62.5,12.233878 62.5,13.851954 56.260846,15 47.46727,15 l -7.220229,0 -0.07369,20.52131 c -0.04053,11.28672 -0.438338,21.97422 -0.88403,23.75 L 38.47898,62.5 23.92699,62.301743 9.375,62.103485 23.253811,60.895394 Z M 0,47.65625 C 0,46.724878 3.587963,46.25 10.625,46.25 l 10.625,0 0,-15.625 0,-15.625 -6.71875,0 C 6.8317743,15 0,13.848368 0,12.550466 c 0,-1.445315 20.541731,0.154525 21.543359,1.677849 0.505097,0.768178 0.926972,8.56856 0.9375,17.334185 L 22.5,47.5 l -7.34375,0 c -4.039062,0 -9.1015625,0.351562 -11.25,0.78125 C 1.3831019,48.78588 0,48.564584 0,47.65625 Z M 3.4375,0.34575555 c 2.234375,-0.27728346 5.890625,-0.27728346 8.125,0 2.234375,0.27728347 0.40625,0.50415176 -4.0625,0.50415176 -4.46875,0 -6.296875,-0.22686828 -4.0625,-0.50415176 z m 47.5,0 c 2.234375,-0.27728346 5.890625,-0.27728346 8.125,0 2.234375,0.27728347 0.40625,0.50415176 -4.0625,0.50415176 -4.46875,0 -6.296875,-0.22686828 -4.0625,-0.50415176 z"
       style="fill:#977037" />
    <path
       id="path3354"
       d="m 1.015625,61.646107 c 0.9023437,-0.361088 1.9804688,-0.31668 2.3958334,0.09869 C 3.8268229,62.16016 3.0885416,62.455596 1.7708334,62.40132 0.3146546,62.341336 0.01845913,62.04514 1.015625,61.646107 Z M 24.93552,61.040379 c 6.495785,-0.615863 11.96701,-1.276242 12.158275,-1.467508 0.191266,-0.191266 0.72911,-8.336455 1.195209,-18.100419 0.466099,-9.763965 1.159193,-17.440922 1.540211,-17.059905 0.872709,0.87271 0.398921,30.022219 -0.563192,34.649953 L 38.551361,62.5 25.838181,62.330065 13.125,62.160131 24.93552,61.040379 Z M -0.00287005,47.1875 C -0.00129152,46.671875 4.7421276,46.25 10.538061,46.25 c 9.93452,0 10.569086,-0.161079 11.079773,-2.8125 0.476523,-2.474058 0.562195,-2.409524 0.711938,0.536289 L 22.5,47.322577 11.24713,47.723789 C 5.0580514,47.944455 -0.00444859,47.703125 -0.00287005,47.1875 Z M 21.49085,23.4375 21.25,15 14.53125,15 C 6.9298068,15 0,13.852421 0,12.593619 c 0,-1.180457 20.23886,0.895241 21.55422,2.210601 0.591087,0.591087 0.87283,4.673822 0.626092,9.072742 L 21.731699,31.875 21.49085,23.4375 Z m 17.357834,-7.32028 c -0.07957,-1.618925 1.831621,-2.168761 9.868077,-2.838976 5.481719,-0.457158 10.825469,-1.160713 11.875,-1.563456 C 61.641293,11.312045 62.5,11.534897 62.5,12.210014 62.5,13.85135 56.30299,15 47.447916,15 c -4.622075,0 -7.467537,0.56493 -7.870065,1.5625 -0.406116,1.006461 -0.665601,0.848001 -0.729167,-0.44528 z M 0.9375,0.42214913 c 0.859375,-0.34676536 2.265625,-0.34676536 3.125,0 C 4.921875,0.76891447 4.21875,1.0526316 2.5,1.0526316 c -1.71875,0 -2.421875,-0.28371712 -1.5625,-0.63048247 z m 57.5,0 c 0.859375,-0.34676536 2.265625,-0.34676536 3.125,0 C 62.421875,0.76891447 61.71875,1.0526316 60,1.0526316 c -1.71875,0 -2.421875,-0.28371712 -1.5625,-0.63048247 z"
       style="fill:rgba(29, 54, 162, 0.9)" />
    <path
       id="path3352"
       d="m 1.015625,61.646107 c 0.9023437,-0.361088 1.9804688,-0.31668 2.3958334,0.09869 C 3.8268229,62.16016 3.0885416,62.455596 1.7708334,62.40132 0.3146546,62.341336 0.01845913,62.04514 1.015625,61.646107 Z M 24.93552,61.040379 c 6.495785,-0.615863 11.95513,-1.264363 12.131876,-1.441109 0.176747,-0.176746 0.867791,-8.455763 1.535654,-18.397814 L 39.817346,23.125 39.471991,41.377159 c -0.189945,10.038687 -0.744545,18.898062 -1.232444,19.6875 -0.581456,0.940815 -5.060702,1.376792 -13.000818,1.265406 L 13.125,62.160131 24.93552,61.040379 Z M 17.735467,46.612115 c 2.239358,-0.342057 3.537887,-1.426383 3.892273,-3.25021 0.438101,-2.254664 0.561799,-2.13122 0.702032,0.700595 0.15425,3.114856 -0.211078,3.419921 -3.892272,3.25021 -3.667483,-0.169079 -3.735745,-0.237201 -0.702033,-0.700595 z M 21.49085,23.607405 21.25,15.33981 15.450536,14.544905 C 12.260831,14.107708 7.4795806,13.75 4.8255359,13.75 2.1714911,13.75 0,13.299941 0,12.749869 c 0,-1.287254 20.131351,0.631482 21.55422,2.054351 0.591087,0.591087 0.87283,4.673822 0.626092,9.072742 L 21.731699,31.875 21.49085,23.607405 Z M 38.769141,15.9375 c -0.01552,-1.774202 0.984583,-2.149704 5.293359,-1.987454 5.06311,0.190655 5.107632,0.224769 0.948422,0.726691 -2.400241,0.289654 -4.782253,1.184008 -5.293358,1.987453 -0.609563,0.958219 -0.935868,0.708201 -0.948423,-0.72669 z M 51.354166,13.296984 C 52.613486,12.201636 62.5,11.600207 62.5,12.618946 62.5,13.241025 59.875,13.75 56.666666,13.75 c -3.208332,0 -5.598957,-0.203857 -5.3125,-0.453016 z M 0.9375,0.42214913 c 0.859375,-0.34676536 2.265625,-0.34676536 3.125,0 C 4.921875,0.76891447 4.21875,1.0526316 2.5,1.0526316 c -1.71875,0 -2.421875,-0.28371712 -1.5625,-0.63048247 z m 57.5,0 c 0.859375,-0.34676536 2.265625,-0.34676536 3.125,0 C 62.421875,0.76891447 61.71875,1.0526316 60,1.0526316 c -1.71875,0 -2.421875,-0.28371712 -1.5625,-0.63048247 z"
       style="fill:#694d24" />
    <path
       id="path3350"
       d="m 25.51036,61.091537 c 6.124449,-0.588825 11.353902,-1.289133 11.62101,-1.55624 0.267106,-0.267107 0.981852,-8.006195 1.588325,-17.197973 L 39.822371,25.625 39.450095,42.666654 c -0.204753,9.37291 -0.760483,17.669785 -1.234958,18.4375 -0.54702,0.885096 -5.066483,1.334032 -12.351408,1.226911 L 14.375,62.16213 25.51036,61.091537 Z M 17.5,46.578754 c 1.71875,-0.319435 3.538261,-1.227209 4.043359,-2.017273 0.589918,-0.92274 0.925205,-0.654147 0.9375,0.751019 0.01464,1.673004 -0.936351,2.147462 -4.043359,2.017272 C 14.99783,47.185642 14.8541,47.070503 17.5,46.578754 Z M 21.460129,21.016697 C 21.258556,15.396939 21.08458,15.137867 17.1875,14.654245 l -4.0625,-0.504152 4.101731,-0.200047 c 4.758239,-0.232065 5.652079,1.234126 4.941691,8.106003 -0.479657,4.639927 -0.505971,4.601315 -0.708293,-1.039352 z M 38.75,14.720533 C 38.75,14.18674 41,13.75 43.75,13.75 c 2.75,0 5,0.222167 5,0.493706 0,0.271538 -2.25,0.708278 -5,0.970531 -2.75,0.262255 -5,0.04009 -5,-0.493705 z M 0,12.779467 c 0,-0.533792 2.25,-0.75596 5,-0.493705 2.75,0.262254 5,0.698994 5,0.970532 C 10,13.527833 7.75,13.75 5,13.75 2.25,13.75 0,13.31326 0,12.779467 Z m 53.75,0.482291 c 0,-0.268534 1.96875,-0.718083 4.375,-0.998999 2.40625,-0.280917 4.375,-0.06121 4.375,0.488242 0,0.549449 -1.96875,0.998999 -4.375,0.998999 -2.40625,0 -4.375,-0.219709 -4.375,-0.488242 z M 59.765625,0.39610745 C 60.667969,0.03501919 61.746094,0.07942709 62.161459,0.49479165 62.576822,0.91015624 61.838541,1.205592 60.520834,1.1513158 59.064655,1.0913358 58.768459,0.7951404 59.765625,0.39610744 Z"
       style="fill:#493618" />
    <path
       id="path3348"
       d="m 23.75,61.681038 c 10.24427,-0.802041 13.568979,-1.716766 14.209533,-3.909463 0.345476,-1.18261 0.523431,-0.743227 0.396273,0.978425 -0.224705,3.042393 -0.495152,3.128258 -10.230806,3.248214 -5.5,0.06777 -7.46875,-0.07496 -4.375,-0.317176 z M 39.20062,41.25 c 0,-6.53125 0.210681,-9.203125 0.468179,-5.9375 0.257498,3.265625 0.257498,8.609375 0,11.875 C 39.411301,50.453125 39.20062,47.78125 39.20062,41.25 Z M 17.5,15 13.125,14.079103 17.113729,13.914551 C 19.30753,13.824049 21.450101,14.3125 21.875,15 c 0.424899,0.6875 0.59872,1.175951 0.386271,1.085449 C 22.048822,15.994945 19.90625,15.506494 17.5,15 Z m 23.4375,-0.882166 c 1.546875,-0.297941 4.078125,-0.297941 5.625,0 1.546875,0.297941 0.28125,0.541711 -2.8125,0.541711 -3.09375,0 -4.359375,-0.24377 -2.8125,-0.541711 z M 1.5862899,12.883761 c 1.2162094,-0.316928 2.9037093,-0.296086 3.75,0.04631 C 6.1825805,13.272483 5.1875,13.531789 3.125,13.506314 1.0625,13.48084 0.37008044,13.200691 1.5862899,12.883761 Z m 56.2500001,0 c 1.216209,-0.316928 2.903709,-0.296086 3.75,0.04631 0.84629,0.342409 -0.14879,0.601715 -2.21129,0.57624 -2.0625,-0.02547 -2.75492,-0.305623 -1.53871,-0.622553 z"
       style="fill:rgba(23, 18, 14, 0.7)" />
  </g>
</svg>
