<svg xmlns:rdf="http://www.w3.org/1999/02/22-rdf-syntax-ns#" xmlns="http://www.w3.org/2000/svg" height="45.08" width="45" version="1.1" xmlns:cc="http://creativecommons.org/ns#" xmlns:dc="http://purl.org/dc/elements/1.1/" viewBox="0 0 45.001038 45.080059">
 <g transform="matrix(1.1316 0 0 1.1316 -378.4 -641.29)">
  <g transform="matrix(1.0465,0,0,1.0465,308.32,538.89)">
   <g  transform="matrix(-2.1396,0,0,2.1396,61.428,37.093)">
    <path  d="m0 0-0.35-2.453-0.348-2.451 2.453 0.346 2.453 0.351-2.104 2.103-2.104 2.104z"/>
   </g>
   <g  transform="matrix(-2.6113 .49814 -.49814 2.6113 50.798 33.063)">
    <path  d="m0.014819-0.032217-0.70185 0.70186 6.3247 6.3287-1.4078 1.4068-6.3257-6.3267-0.7038 0.7018 6.3297 6.3277-0.7039 0.7019-7.0295-7.0296 4.2181-4.2161 7.0276 7.0305-0.7009 0.7019-6.3267-6.3287z"/>
   </g>
   <g  transform="matrix(-2.1223,0,0,2.1223,25.551,58.086)">
    <path  d="m0 0-2.804 2.806c-0.385 0.384-1.004 0.396-1.372 0.027l-0.069-0.102-0.017 0.019-1.346-1.347 4.206-4.207 1.346 1.346-0.018 0.019 0.102 0.066c0.37 0.369 0.357 0.988-0.028 1.373"/>
   </g>
  </g>
 </g>
</svg>
